<svg width="155" height="181" viewBox="0 0 155 181" fill="none" xmlns="http://www.w3.org/2000/svg">
<path d="M69.5 43.5V66.5H63.5L61.5 65L59 63L57 61.5L55.5 60L54.5 57.5L53.5 54.5L52 50L51.5 45.5L52 31.5L53.5 27L54.5 24L55.5 21.5L57 19L59 16L61.5 13L63.5 11L65 9.5L67 7.5L69 6L71 4.5L72.5 3.5L75 2L76.5 1L78.5 2L79.5 2.5L82 4.5L84.5 6.5L86.5 8.5L89 11L91.5 14L93.5 16.5L95 19L96 21.5L97.5 25L98.5 28.5L99 31.5V45.5L98.5 48L97 51.5L95.5 54.5L93.5 57.5L91.5 60L89 62.5L86 65L83.5 66.5H81V43.5L78.5 40.5L76.5 39H74.5L72 40.5L69.5 43.5Z" fill="url(#paint0_linear_8_14)" stroke="#7B8F6E"/>
<path d="M82 148.5V179.5H87.5L91.5 178.5L96.5 177L101.5 175.5L107 173L112 170L116.5 167.5L120 165L124.5 161L128 157.5L131.5 153.5L135 150L137 146.5L139.5 142.5L141.5 138.5L144 134L146 129.5L148 124L149 117L149.5 112V99.5V92L148 85L146.5 79.5L145 74.5L142.5 69.5L140 66L138.5 71.5L135.5 81.5L130.5 92L122.5 103L112 112L102.5 118.5L94 124L86.5 134L82 148.5Z" fill="#52613C" stroke="#52613C"/>
<path d="M68.5 148.5V179.5H63L59 178.5L54 177L49 175.5L43.5 173L38.5 170L34 167.5L30.5 165L26 161L22.5 157.5L19 153.5L15.5 150L13.5 146.5L11 142.5L9 138.5L6.5 134L4.5 129.5L2.5 124L1.5 117L1 112V99.5V92L2.5 85L4 79.5L5.5 74.5L8 69.5L10.5 66L12 71.5L15 81.5L20 92L28 103L38.5 112L48 118.5L56.5 124L64 134L68.5 148.5Z" fill="#52613C" stroke="#52613C"/>
<path d="M81.5 78L80.5 126.5L83 122.5L84.5 121L86.5 118.5L89 116L92.5 113.5L96 110.5L99 108.5L102 106L105.5 103.5L109 101L113 97.5L116.5 93.5L120.5 88.5L123.5 84L125.5 79.5L127 74L128 70L128.5 66V62V58.5L128 54.5L127 51L125.5 47.5L124 44L122 41.5L119.5 38.5L117 36L114 33.5L111 31H109V44V47.5L108 51L107 54.5L105.5 58L104 61L102 64L100 66.5L97.5 69L94.5 71.5L91.5 73.5L88 75.5L84.5 77L81.5 78Z" fill="url(#paint1_linear_8_14)" stroke="#556747"/>
<path d="M69 78L69.5 126.5L67 122.5L65.5 121L63.5 118.5L61 116L57.5 113.5L54 110.5L51 108.5L48 106L44.5 103.5L41 101L37 97.5L33.5 93.5L29.5 88.5L26.5 84L24.5 79.5L23 74L22 70L21.5 66V62V58.5L22 54.5L23 51L24.5 47.5L26 44L28 41.5L30.5 38.5L33 36L36 33.5L39 31H41V44V47.5L42 51L43 54.5L44.5 58.5L45.5 61L47 64.5L49 67L51 69.5L54 72L57 74L61 76L65.5 77L69 78Z" fill="url(#paint2_linear_8_14)" stroke="#556747"/>
<circle cx="147" cy="173" r="7.5" fill="#314528"/>
<defs>
<linearGradient id="paint0_linear_8_14" x1="75.25" y1="1" x2="75.25" y2="66.5" gradientUnits="userSpaceOnUse">
<stop stop-color="#7B8F6E"/>
<stop offset="0.504808" stop-color="#788D6D"/>
<stop offset="1" stop-color="#788E70"/>
</linearGradient>
<linearGradient id="paint1_linear_8_14" x1="80.5" y1="126.5" x2="116.5" y2="31.5" gradientUnits="userSpaceOnUse">
<stop stop-color="#556747"/>
<stop offset="0.5" stop-color="#687859"/>
<stop offset="1" stop-color="#4C5C42"/>
</linearGradient>
<linearGradient id="paint2_linear_8_14" x1="40.5" y1="31.5" x2="69.5" y2="126.5" gradientUnits="userSpaceOnUse">
<stop stop-color="#556747"/>
<stop offset="0.5" stop-color="#687859"/>
<stop offset="1" stop-color="#4C5C42"/>
</linearGradient>
</defs>
</svg>
